<?xml version="1.0" standalone="no"?>
<!DOCTYPE svg PUBLIC "-//W3C//DTD SVG 20010904//EN"
 "http://www.w3.org/TR/2001/REC-SVG-20010904/DTD/svg10.dtd">
<svg version="1.0" xmlns="http://www.w3.org/2000/svg"
 width="700.000000pt" height="700.000000pt" viewBox="0 0 700.000000 700.000000"
 preserveAspectRatio="xMidYMid meet">
<metadata>
Created by potrace 1.11, written by Peter Selinger 2001-2013
</metadata>
<g transform="translate(0.000000,700.000000) scale(0.100000,-0.100000)"
fill="#000000" stroke="none">
<path d="M1790 6494 c-197 -21 -328 -49 -451 -94 -382 -139 -571 -426 -628
-950 -8 -82 -7 -484 2 -525 3 -11 8 -49 11 -85 4 -36 9 -76 11 -90 6 -33 13
-75 20 -130 19 -134 78 -400 144 -645 115 -426 386 -1075 621 -1485 164 -286
384 -590 564 -780 261 -275 528 -401 851 -401 131 0 142 1 323 37 145 28 152
29 152 10 0 -35 -66 -211 -121 -321 -33 -66 -117 -214 -189 -330 -71 -115
-128 -210 -127 -211 10 -10 264 92 357 142 126 69 367 258 460 360 309 341
479 675 582 1144 24 109 33 356 17 455 -56 353 -287 646 -641 815 -190 90
-399 149 -1338 375 -498 120 -678 219 -785 430 -47 94 -66 172 -66 281 0 263
131 560 389 880 146 182 368 392 556 529 16 11 47 34 70 50 126 94 315 208
560 340 l89 49 -39 14 c-36 12 -216 49 -359 72 -65 11 -106 18 -145 25 -14 3
-47 7 -75 11 -27 3 -57 8 -65 9 -15 3 -66 9 -175 21 -107 12 -464 11 -575 -2z"/>
<path d="M4718 6505 c-2 -2 -30 -6 -63 -9 -300 -33 -668 -158 -929 -316 -313
-189 -645 -494 -770 -709 -106 -181 -147 -343 -112 -435 29 -75 64 -105 264
-225 193 -115 273 -149 532 -226 212 -63 221 -66 515 -146 506 -137 658 -202
800 -343 155 -154 219 -335 210 -601 -2 -66 -7 -136 -10 -155 -3 -19 -10 -66
-16 -105 -29 -192 -132 -526 -240 -776 -33 -79 -67 -156 -75 -171 -8 -15 -10
-28 -5 -28 39 0 517 460 696 670 50 58 92 107 96 110 15 14 225 300 276 377
193 289 320 562 383 823 31 124 33 314 6 405 -44 143 -139 281 -320 461 -251
250 -450 374 -1210 756 -187 93 -345 176 -353 183 -29 30 -15 60 65 136 132
127 226 202 326 258 53 30 96 57 96 61 0 5 -156 10 -162 5z"/>
</g>
</svg>
