<?xml version="1.0" encoding="utf-8"?>
<!-- Generator: Adobe Illustrator 24.2.1, SVG Export Plug-In . SVG Version: 6.00 Build 0)  -->
<svg version="1.1" id="Layer_1" xmlns="http://www.w3.org/2000/svg" xmlns:xlink="http://www.w3.org/1999/xlink" x="0px" y="0px"
	 viewBox="0 0 512 512" style="enable-background:new 0 0 512 512;" xml:space="preserve">
<style type="text/css">
	.st0{fill:#03A9F4;}
</style>
<g>
	<path class="st0" d="M235.6,47.9c-3.7-1.1-6.2-2-8.8-2.5C211.9,42.8,197,39.8,182,38c-22.6-2.8-45.3-2.8-67.9,1.5
		c-34.7,6.6-53.2,25-59.9,59.6c-4.8,24.9-2.9,49.7,1,74.4C62,215.8,75.6,256,93.4,294.8c15.2,33,33.6,63.9,58.2,91.1
		c24.6,27.1,54.1,36.2,89.4,27c2.5-0.6,5-0.8,9-1.4c-5.7,25-20.4,43.8-32.5,64.5c10.7-3.5,21.1-7.3,30.2-13
		c39-24.8,61.7-61.1,71.6-105.6c3.4-15.2,3.9-30.6-0.8-45.7c-8.5-27.6-29-43.9-54.6-53.4c-19.3-7.2-39.9-11-60-16.3
		c-19.3-5.1-39.3-8.5-57.9-15.4c-26.3-9.8-37-31.9-30.3-58.9c2.2-9.1,6.2-18.1,10.9-26.3c17.7-30.4,43.3-53.4,72.4-72.5
		C210.3,61.4,222.6,55.3,235.6,47.9z M351.9,347.1c1.6-1.1,3.4-2,4.8-3.3c22.3-19.2,42.9-39.9,60.7-63.4
		c16.6-21.9,31.3-44.9,39.3-71.5c5.5-18.5,6.4-36.5-6-53.1c-14.3-19.2-32.4-34.1-52.8-45.8c-23.7-13.5-48.4-25.4-72.8-37.6
		c-5.3-2.7-7.1-5.1-2.5-9.5c6-5.7,12-11.4,18.5-16.5c4.6-3.6,10-6.1,16.6-10c-5.5,0-9.2-0.3-12.7,0c-49.9,5.3-90.2,28.7-122.4,66.3
		c-6.5,7.5-10.7,17.4-14.3,26.9c-3.3,8.9-0.9,18,7.6,23.3c11.3,7,22.7,14.7,35.2,18.9c25.2,8.5,51.2,14.5,76.7,22.1
		c40.8,12.1,55.2,35,49,77C372.8,297.5,363.5,322.3,351.9,347.1z"/>
	<path class="st0" d="M235.6,47.9c-13.1,7.4-25.3,13.5-36.7,21c-29.1,19.1-54.6,42.1-72.4,72.5c-4.7,8.1-8.7,17.1-10.9,26.3
		c-6.7,27.1,4,49.1,30.3,58.9c18.6,6.9,38.6,10.3,57.9,15.4c20.1,5.3,40.6,9.1,60,16.3c25.5,9.5,46.1,25.8,54.6,53.4
		c4.6,15.1,4.1,30.6,0.8,45.7c-9.9,44.6-32.7,80.8-71.6,105.6c-9.1,5.8-19.5,9.5-30.2,13c12.1-20.8,26.8-39.6,32.5-64.5
		c-3.9,0.6-6.5,0.8-9,1.4c-35.3,9.2-64.8,0.2-89.4-27c-24.6-27.1-43-58.1-58.2-91.1C75.6,256,62,215.8,55.3,173.5
		c-3.9-24.7-5.9-49.5-1-74.4c6.7-34.6,25.2-53,59.9-59.6c22.6-4.3,45.2-4.3,67.9-1.5c15,1.8,29.9,4.8,44.8,7.4
		C229.4,45.8,231.9,46.8,235.6,47.9z"/>
	<path class="st0" d="M351.9,347.1c11.5-24.8,20.9-49.6,24.9-76.2c6.2-42.1-8.3-64.9-49-77c-25.5-7.6-51.5-13.6-76.7-22.1
		c-12.4-4.2-23.9-11.9-35.2-18.9c-8.5-5.3-10.9-14.4-7.6-23.3c3.5-9.5,7.8-19.3,14.3-26.9c32.2-37.6,72.5-61,122.4-66.3
		c3.6-0.4,7.2,0,12.7,0c-6.6,3.9-12,6.4-16.6,10c-6.5,5.1-12.5,10.8-18.5,16.5c-4.6,4.4-2.8,6.8,2.5,9.5
		c24.4,12.2,49.1,24.1,72.8,37.6c20.4,11.7,38.5,26.6,52.8,45.8c12.4,16.6,11.6,34.6,6,53.1c-8,26.6-22.7,49.7-39.3,71.5
		c-17.8,23.4-38.4,44.2-60.7,63.4C355.3,345.1,353.5,346,351.9,347.1z"/>
</g>
</svg>
